<svg width="126" height="37" viewBox="0 0 126 37" fill="none" xmlns="http://www.w3.org/2000/svg">
  <g clip-path="url(#clip0_2116_6596)">
    <path
      d="M124.348 14.4346C123.885 13.6205 123.247 12.9819 122.433 12.5189C121.618 12.056 120.676 11.8271 119.612 11.8271C118.548 11.8271 117.681 12.0666 116.898 12.5455C116.334 12.8808 115.882 13.3278 115.541 13.8919V12.6786C115.541 12.3859 115.302 12.1464 115.009 12.1464H113.2C112.907 12.1464 112.668 12.3859 112.668 12.6786V26.0087C112.668 26.3013 112.907 26.5408 113.2 26.5408H115.142C115.435 26.5408 115.674 26.3013 115.674 26.0087V18.0532C115.674 17.3454 115.807 16.7335 116.073 16.2173C116.34 15.7011 116.712 15.3127 117.191 15.0466C117.686 14.7646 118.245 14.6209 118.867 14.6209C119.49 14.6209 120.038 14.7646 120.517 15.0466C121.012 15.3127 121.395 15.7011 121.661 16.2173C121.927 16.7122 122.06 17.3242 122.06 18.0532V26.0087C122.06 26.3013 122.3 26.5408 122.592 26.5408H124.508C124.801 26.5408 125.04 26.3013 125.04 26.0087V17.255C125.04 16.1907 124.811 15.2488 124.348 14.4346Z"
      fill="#484848" />
    <path
      d="M108.618 12.1465H106.676C106.382 12.1465 106.144 12.3847 106.144 12.6786V26.0087C106.144 26.3026 106.382 26.5409 106.676 26.5409H108.618C108.912 26.5409 109.15 26.3026 109.15 26.0087V12.6786C109.15 12.3847 108.912 12.1465 108.618 12.1465Z"
      fill="#484848" />
    <path
      d="M98.6464 18.2714C98.5133 18.0639 98.5346 17.7925 98.7049 17.6169L103.005 13.0458C103.324 12.7053 103.084 12.1518 102.616 12.1518H100.323C100.179 12.1518 100.041 12.2104 99.9395 12.3115L94.0593 18.3885V6.93155C94.0593 6.63888 93.8199 6.39941 93.5272 6.39941H91.5849C91.2922 6.39941 91.0527 6.63888 91.0527 6.93155V26.0088C91.0527 26.3014 91.2922 26.5409 91.5849 26.5409H93.5272C93.8199 26.5409 94.0593 26.3014 94.0593 26.0088V22.172L96.2198 19.8785L100.472 26.3068C100.567 26.4558 100.738 26.5462 100.913 26.5462H103.1C103.521 26.5462 103.776 26.0779 103.542 25.7214L98.6464 18.2768V18.2714Z"
      fill="#484848" />
    <path
      d="M84.5819 12.8116C83.5016 12.1571 82.2777 11.8271 80.9101 11.8271C79.7767 11.8271 78.7656 12.056 77.8769 12.5189C77.1692 12.8861 76.5785 13.3757 76.0943 13.977V12.6786C76.0943 12.3859 75.8548 12.1464 75.5621 12.1464H73.7528C73.4602 12.1464 73.2207 12.3859 73.2207 12.6786V31.3301C73.2207 31.6227 73.4602 31.8622 73.7528 31.8622H75.6952C75.9878 31.8622 76.2273 31.6227 76.2273 31.3301V24.8699C76.6637 25.4073 77.2064 25.8384 77.8503 26.1683C78.7709 26.6313 79.7926 26.8601 80.9101 26.8601C82.2937 26.8601 83.5283 26.5302 84.6085 25.8756C85.6887 25.1998 86.5402 24.2952 87.1628 23.1617C87.8013 22.0283 88.1206 20.7511 88.1206 19.3303C88.1206 17.9095 87.8013 16.6324 87.1628 15.4989C86.5402 14.3655 85.6834 13.4661 84.5819 12.8116ZM84.4222 21.7782C84.0497 22.4859 83.5336 23.0447 82.879 23.4544C82.2245 23.8641 81.4689 24.0664 80.6174 24.0664C79.766 24.0664 79.0317 23.8641 78.3559 23.4544C77.7013 23.0447 77.1745 22.4859 76.786 21.7782C76.4135 21.0491 76.2273 20.235 76.2273 19.3303C76.2273 18.4257 76.4135 17.6168 76.786 16.9091C77.1745 16.2013 77.7013 15.6426 78.3559 15.2328C79.0317 14.8231 79.782 14.6209 80.6174 14.6209C81.4529 14.6209 82.2245 14.8231 82.879 15.2328C83.5336 15.6426 84.0497 16.2013 84.4222 16.9091C84.8107 17.6168 85.0076 18.4257 85.0076 19.3303C85.0076 20.235 84.8107 21.0491 84.4222 21.7782Z"
      fill="#484848" />
    <path
      d="M66.9142 12.4657C66.0468 12.04 65.0411 11.8271 63.9076 11.8271C63.003 11.8271 62.1409 11.9761 61.3267 12.2795C60.5285 12.5828 59.8261 13.0085 59.2248 13.5566C58.7512 13.977 58.3787 14.4506 58.1126 14.9827C57.9902 15.2275 58.1073 15.5149 58.3521 15.6373L59.9219 16.4195C60.1933 16.5579 60.5232 16.4302 60.6828 16.1747C60.9489 15.7437 61.3001 15.3765 61.7258 15.0785C62.3271 14.6528 63.0296 14.44 63.8278 14.44C64.6952 14.44 65.387 14.6688 65.9031 15.1317C66.4353 15.5734 66.7013 16.1534 66.7013 16.8612V17.4519C66.6375 17.4412 66.5736 17.4306 66.5098 17.4412L62.1249 18.1649C61.0234 18.3405 60.1134 18.6439 59.3844 19.0696C58.6554 19.4953 58.1179 20.0168 57.7614 20.6394C57.4261 21.262 57.2559 21.9591 57.2559 22.7413C57.2559 23.5768 57.4581 24.3005 57.8678 24.9231C58.2776 25.5244 58.8416 26.0033 59.5707 26.3599C60.3157 26.6951 61.1777 26.8654 62.1515 26.8654C62.9657 26.8654 63.7054 26.7483 64.3599 26.5195C65.0357 26.2907 65.6264 25.9608 66.1426 25.5351C66.398 25.3329 66.6215 25.104 66.8344 24.8592V26.014C66.8344 26.3067 67.0738 26.5461 67.3665 26.5461H69.1758C69.4685 26.5461 69.7079 26.3067 69.7079 26.014V16.8612C69.7079 15.8661 69.4578 14.9987 68.9629 14.2537C68.484 13.4927 67.8029 12.8967 66.9142 12.471V12.4657ZM66.7013 20.5542C66.7013 21.2833 66.531 21.9484 66.1958 22.5498C65.8606 23.1351 65.3816 23.6034 64.759 23.9599C64.1577 24.3165 63.4446 24.4921 62.6305 24.4921C61.9759 24.4921 61.4332 24.3218 61.0074 23.9865C60.5977 23.63 60.3955 23.1777 60.3955 22.6296C60.3955 22.0815 60.5817 21.6026 60.9542 21.246C61.3267 20.8735 61.9121 20.6181 62.7103 20.4744L66.6854 19.7773C66.6854 19.7773 66.696 19.7773 66.7013 19.772V20.5542Z"
      fill="#484848" />
    <path
      d="M53.4988 6.71875H51.45C51.1573 6.71875 50.9179 6.95821 50.9179 7.25089V20.416L41.1531 6.93693C41.052 6.79857 40.8924 6.71875 40.7221 6.71875H38.998C38.7053 6.71875 38.4658 6.95821 38.4658 7.25089V26.0088C38.4658 26.3015 38.7053 26.5409 38.998 26.5409H41.0733C41.366 26.5409 41.6054 26.3015 41.6054 26.0088V12.684L51.3436 26.3174C51.4447 26.4558 51.6043 26.5409 51.7746 26.5409H53.4934C53.7861 26.5409 54.0256 26.3015 54.0256 26.0088V7.25089C54.0256 6.95821 53.7861 6.71875 53.4934 6.71875H53.4988Z"
      fill="#484848" />
    <path
      d="M9.02257 35.1681C9.23542 35.9609 10.2252 36.227 10.8052 35.647L25.9552 20.4863L7.88379 30.9163L9.02257 35.1734V35.1681Z"
      fill="#484848" />
    <path
      d="M2.63646 0.578489C1.92871 0.168742 1.04004 0.679596 1.04004 1.49909V10.7157L10.6132 5.18682L2.63646 0.578489Z"
      fill="#484848" />
    <path d="M13.4602 6.83643L1.04004 14.0043V21.2414L19.7181 10.455L13.4602 6.83643Z" fill="#484848" />
    <path
      d="M27.2213 14.7922L22.5651 12.0996L1.04004 24.5304V29.9316C1.04004 30.7298 1.8755 31.2247 2.57792 30.8788L13.5772 24.5304L27.2213 16.6388C27.9291 16.229 27.9291 15.2073 27.2213 14.7976V14.7922Z"
      fill="#484848" />
    <path
      d="M107.649 10.0499C108.658 10.0499 109.475 9.2327 109.475 8.22465C109.475 7.2166 108.658 6.39941 107.649 6.39941C106.641 6.39941 105.824 7.2166 105.824 8.22465C105.824 9.2327 106.641 10.0499 107.649 10.0499Z"
      fill="#484848" />
  </g>
  <defs>
    <clipPath id="clip0_2116_6596">
      <rect width="126" height="36" fill="white" transform="translate(0 0.197754)" />
    </clipPath>
  </defs>
</svg>