<svg xmlns="http://www.w3.org/2000/svg" xml:space="preserve" id="레이어_1" x="0px" y="0px" style="enable-background:new 0 0 581.6 494" version="1.1" viewBox="0 0 581.6 494"><style>.st1{fill:#3a3c8a}</style><path d="M123 498.5c0-15.9-12.9-28.8-28.8-28.8s-28.8 12.9-28.8 28.8 12.9 28.8 28.8 28.8 28.8-12.9 28.8-28.8" style="fill:#fff" transform="matrix(3.24705 0 0 -3.24705 -110.452 1831.632)"/><path d="M288.935 212.978c0 51.628-41.887 93.515-93.515 93.515s-93.515-41.887-93.515-93.515 41.887-93.515 93.515-93.515 93.515 41.886 93.515 93.515M195.42-.03C87.618-.029-.052 87.641-.052 195.444v297.105h162.677v-88.645h65.59v88.645h162.678V195.444C390.893 87.64 303.547-.03 195.42-.03" class="st1"/><path d="M261.335 212.978c0 36.367-29.548 65.59-65.59 65.59-36.367 0-65.59-29.548-65.59-65.59 0-36.367 29.548-65.59 65.59-65.59s65.59 29.547 65.59 65.59M581.494 417.217c.65 41.887-32.47 76.306-74.357 76.955-41.887.65-76.306-32.47-76.955-74.357v-2.598c.65-41.887 35.068-75.007 76.955-74.357 40.913.649 73.708 33.444 74.357 74.357" class="st1"/><path d="M91.1 506.4c0-2.6-2.1-4.6-4.6-4.6-2.6 0-4.6 2.1-4.6 4.6s2.1 4.6 4.6 4.6c2.6 0 4.6-2.1 4.6-4.6" style="fill:#9498cb" transform="matrix(3.24705 0 0 -3.24705 -110.452 1831.632)"/></svg>